:FULLY-SPECIFIED
:FORCE-ALL-JOINTS-BE-3DOF
:DEGREES
645
root 5.55654 16.4917 -2.99286 16.7787 13.6792 -1.60357
lfemur -18.9052 22.2405 -26.6581
ltibia 35.794 0 0
lfoot -36.0616 11.1601 0
ltoes 24.4023 0 0
rfemur -56.3108 -27.0141 28.3508
rtibia 63.2871 0 0
rfoot -5.66301 -3.64459 0
rtoes 4.47322 0 0
lowerback -0.859429 -3.57879 -5.0734
upperback -2.3293 -4.78204 0.816312
thorax -1.43621 -2.30694 3.67354
lowerneck -9.54489 -7.89572 -0.224257
upperneck 3.88804 -11.0784 7.87718
head 3.47601 -5.19356 1.95068
lclavicle 5.50634e-14 1.19271e-14 0
lhumerus -42.5451 -68.2693 122.827
lradius 73.7683 0 0
lwrist 24.8853 0 0
lhand -4.44354 2.86914 0
lfingers 7.12502 0 0
lthumb 21.328 31.7155 0
rclavicle 5.50634e-14 1.19271e-14 0
rhumerus -33.5991 4.42662 -75.4864
rradius 73.7453 0 0
rwrist -19.5242 0 0
rhand -28.5506 -37.3401 0
rfingers 7.12502 0 0
rthumb -1.91768 -787.311 0
646
root 5.55158 16.46 -2.91372 16.9218 12.5555 -1.3218
lfemur -18.6904 22.5881 -26.9814
ltibia 35.957 0 0
lfoot -36.2119 11.323 0
ltoes 23.8248 0 0
rfemur -57.2223 -27.4782 29.486
rtibia 63.958 0 0
rfoot -6.0462 -3.68702 0
rtoes 4.26112 0 0
lowerback -0.821102 -3.64373 -5.18894
upperback -2.25497 -4.87078 0.64153
thorax -1.37865 -2.35373 3.55623
lowerneck -9.56654 -7.81075 -0.274135
upperneck 3.77785 -10.9463 7.80722
head 3.43408 -5.13532 1.94576
lclavicle 4.17732e-14 9.08732e-15 0
lhumerus -42.8296 -68.6764 123.424
lradius 73.68 0 0
lwrist 24.8956 0 0
lhand -4.51376 2.99434 0
lfingers 7.12502 0 0
lthumb 21.2605 31.8482 0
rclavicle 4.17732e-14 9.08732e-15 0
rhumerus -34.7503 2.99085 -75.6343
rradius 71.8294 0 0
rwrist -19.0564 0 0
rhand -28.6684 -38.8872 0
rfingers 7.12502 0 0
rthumb -2.03146 -788.857 0
647
root 5.54662 16.4282 -2.83458 17.065 11.4319 -1.04003
lfemur -18.4756 22.9357 -27.3047
ltibia 36.12 0 0
lfoot -36.3623 11.486 0
ltoes 23.2472 0 0
rfemur -58.1338 -27.9424 30.6212
rtibia 64.6288 0 0
rfoot -6.42939 -3.72945 0
rtoes 4.04901 0 0
lowerback -0.782774 -3.70867 -5.30448
upperback -2.18063 -4.95953 0.466747
thorax -1.3211 -2.40051 3.43892
lowerneck -9.5882 -7.72578 -0.324013
upperneck 3.66766 -10.8142 7.73726
head 3.39214 -5.07709 1.94083
lclavicle 2.8483e-14 6.24753e-15 0
lhumerus -43.1141 -69.0836 124.022
lradius 73.5918 0 0
lwrist 24.9059 0 0
lhand -4.58397 3.11955 0
lfingers 7.12502 0 0
lthumb 21.1931 31.981 0
rclavicle 2.8483e-14 6.24753e-15 0
rhumerus -35.9014 1.55509 -75.7822
rradius 69.9135 0 0
rwrist -18.5886 0 0
rhand -28.7862 -40.4343 0
rfingers 7.12502 0 0
rthumb -2.14524 -790.403 0
648
root 5.54166 16.3965 -2.75544 17.2081 10.3082 -0.758256
lfemur -18.2608 23.2833 -27.628
ltibia 36.283 0 0
lfoot -36.5126 11.6489 0
ltoes 22.6697 0 0
rfemur -59.0453 -28.4065 31.7564
rtibia 65.2997 0 0
rfoot -6.81258 -3.77188 0
rtoes 3.83691 0 0
lowerback -0.744447 -3.77361 -5.42002
upperback -2.1063 -5.04827 0.291965
thorax -1.26354 -2.4473 3.32161
lowerneck -9.60985 -7.64081 -0.373891
upperneck 3.55747 -10.6821 7.6673
head 3.35021 -5.01885 1.93591
lclavicle 1.51928e-14 3.40775e-15 0
lhumerus -43.3986 -69.4907 124.619
lradius 73.5035 0 0
lwrist 24.9162 0 0
lhand -4.65419 3.24475 0
lfingers 7.12502 0 0
lthumb 21.1256 32.1137 0
rclavicle 1.51928e-14 3.40775e-15 0
rhumerus -37.0526 0.119319 -75.9301
rradius 67.9976 0 0
rwrist -18.1208 0 0
rhand -28.904 -41.9814 0
rfingers 7.12502 0 0
rthumb -2.25902 -791.949 0
